<?xml version="1.0" encoding="UTF-8" standalone="no"?>
<svg
   xmlns:dc="http://purl.org/dc/elements/1.1/"
   xmlns:cc="http://creativecommons.org/ns#"
   xmlns:rdf="http://www.w3.org/1999/02/22-rdf-syntax-ns#"
   xmlns:svg="http://www.w3.org/2000/svg"
   xmlns="http://www.w3.org/2000/svg"
   xmlns:sodipodi="http://sodipodi.sourceforge.net/DTD/sodipodi-0.dtd"
   xmlns:inkscape="http://www.inkscape.org/namespaces/inkscape"
   width="127pt"
   height="125pt"
   viewBox="0 0 127 125"
   version="1.1"
   id="svg855"
   sodipodi:docname="Bleu.svg"
   inkscape:version="0.92.3 (2405546, 2018-03-11)">
  <metadata
     id="metadata861">
    <rdf:RDF>
      <cc:Work
         rdf:about="">
        <dc:format>image/svg+xml</dc:format>
        <dc:type
           rdf:resource="http://purl.org/dc/dcmitype/StillImage" />
        <dc:title></dc:title>
      </cc:Work>
    </rdf:RDF>
  </metadata>
  <defs
     id="defs859" />
  <sodipodi:namedview
     pagecolor="#ffffff"
     bordercolor="#666666"
     borderopacity="1"
     objecttolerance="10"
     gridtolerance="10"
     guidetolerance="10"
     inkscape:pageopacity="0"
     inkscape:pageshadow="2"
     inkscape:window-width="1920"
     inkscape:window-height="1017"
     id="namedview857"
     showgrid="false"
     inkscape:pagecheckerboard="true"
     inkscape:zoom="2.544"
     inkscape:cx="75.616714"
     inkscape:cy="113.95246"
     inkscape:window-x="-8"
     inkscape:window-y="-8"
     inkscape:window-maximized="1"
     inkscape:current-layer="svg855" />
  <path
     fill="#21272f"
     d=" M 55.40 2.50 C 70.05 0.46 85.35 4.16 97.48 12.58 C 115.47 21.95 124.31 42.62 125.92 62.03 C 124.75 94.34 96.06 124.31 63.01 123.07 C 27.92 124.89 -5.34 90.43 1.99 54.98 C 5.34 27.86 28.55 6.20 55.40 2.50 Z"
     id="path841" />
  <path
     fill="#5aacba"
     d=" M 56.48 13.43 C 59.86 11.47 62.54 16.30 64.82 18.20 C 63.63 21.60 60.84 24.10 58.84 27.01 C 55.44 25.99 52.09 24.65 49.00 22.88 C 51.35 19.63 53.93 16.54 56.48 13.43 Z"
     id="path843" />
  <path
     fill="#5aacba"
     d=" M 67.29 20.21 C 71.86 20.48 79.30 27.63 73.34 31.33 C 71.75 32.65 67.19 39.87 68.57 34.68 C 70.41 29.52 59.41 30.66 63.01 26.02 C 64.34 24.01 65.79 22.09 67.29 20.21 Z"
     id="path845" />
  <path
     fill="#5aacba"
     d=" M 44.22 25.13 C 51.29 26.07 57.86 30.88 64.82 33.30 C 65.96 37.21 62.82 40.96 58.34 39.56 C 53.17 41.92 51.53 34.89 47.24 33.85 C 49.03 38.55 45.72 40.80 42.82 43.08 C 45.35 45.78 49.38 46.77 52.65 48.48 C 56.77 54.08 60.55 59.95 63.98 66.00 C 70.11 71.81 49.94 74.29 63.75 75.30 C 64.48 81.84 64.84 88.40 65.11 94.97 C 71.10 91.73 63.22 77.93 71.79 74.70 C 68.03 67.51 65.91 57.67 59.87 50.98 C 65.98 51.61 71.92 54.29 75.74 59.26 C 79.84 63.94 83.85 56.05 88.02 54.95 C 85.54 61.36 85.60 69.06 79.89 73.87 C 72.77 81.12 76.74 92.79 74.32 101.34 C 64.72 102.68 54.21 100.24 44.22 100.85 C 41.16 92.43 47.18 83.03 47.95 74.08 C 43.78 63.22 35.45 55.04 30.01 44.93 C 32.13 37.00 39.32 31.46 44.22 25.13 Z"
     id="path847" />
  <path
     fill="#5aacba"
     d=" M 77.25 30.14 C 80.95 29.73 83.26 34.03 86.09 36.01 C 81.78 41.23 77.94 47.43 72.02 50.93 C 69.58 49.81 66.80 48.91 64.87 47.01 C 69.29 41.61 73.16 35.79 77.25 30.14 Z"
     id="path849" />
  <path
     fill="#5aacba"
     d=" M 88.21 39.42 C 89.96 40.31 95.62 45.97 91.11 48.14 C 86.80 50.58 79.32 61.67 74.86 54.01 C 78.80 48.66 83.78 44.29 88.21 39.42 Z"
     id="path851" />
  <path
     fill="#5aacba"
     d=" M 59.34 43.37 C 63.61 42.00 58.69 48.61 56.76 45.34 C 54.67 43.63 58.24 43.91 59.34 43.37 Z"
     id="path853" />
</svg>
