<?xml version="1.0" encoding="UTF-8" standalone="no"?>
<svg
   xmlns:dc="http://purl.org/dc/elements/1.1/"
   xmlns:cc="http://creativecommons.org/ns#"
   xmlns:rdf="http://www.w3.org/1999/02/22-rdf-syntax-ns#"
   xmlns:svg="http://www.w3.org/2000/svg"
   xmlns="http://www.w3.org/2000/svg"
   xmlns:sodipodi="http://sodipodi.sourceforge.net/DTD/sodipodi-0.dtd"
   xmlns:inkscape="http://www.inkscape.org/namespaces/inkscape"
   width="375.00153pt"
   height="375.00839pt"
   viewBox="0 0 375.00153 375.00839"
   version="1.1"
   id="svg3773"
   sodipodi:docname="Rouge.svg"
   inkscape:version="0.92.3 (2405546, 2018-03-11)">
  <metadata
     id="metadata3779">
    <rdf:RDF>
      <cc:Work
         rdf:about="">
        <dc:format>image/svg+xml</dc:format>
        <dc:type
           rdf:resource="http://purl.org/dc/dcmitype/StillImage" />
        <dc:title></dc:title>
      </cc:Work>
    </rdf:RDF>
  </metadata>
  <defs
     id="defs3777" />
  <sodipodi:namedview
     pagecolor="#ffffff"
     bordercolor="#666666"
     borderopacity="1"
     objecttolerance="10"
     gridtolerance="10"
     guidetolerance="10"
     inkscape:pageopacity="0"
     inkscape:pageshadow="2"
     inkscape:window-width="1920"
     inkscape:window-height="1017"
     id="namedview3775"
     showgrid="false"
     inkscape:pagecheckerboard="true"
     inkscape:zoom="1.272"
     inkscape:cx="126.91732"
     inkscape:cy="275.44903"
     inkscape:window-x="-8"
     inkscape:window-y="-8"
     inkscape:window-maximized="1"
     inkscape:current-layer="svg3773" />
  <path
     id="path3761"
     style="fill:#020101;stroke-width:1"
     d="m 187.46798,-0.99932685 c -5.64684,0.015165 -11.29258,0.28623 -16.91602,0.8159175 C 147.40196,1.9365909 124.66106,8.4161267 103.88106,18.83612 74.361061,33.586122 48.921473,56.286395 30.80147,83.866392 10.201471,115.0764 -0.65903529,152.57675 0.03096246,189.97675 c 0.45,35.2 11.14015654,70.16964 30.41015654,99.61962 17.469999,26.80001 41.850662,49.04967 70.180671,63.90968 28.27999,14.91 60.42011,22.32066 92.37011,21.43066 30.34,-0.75 60.47969,-9.00039 86.92969,-23.90039 31.54,-17.64 57.75056,-44.61986 74.56054,-76.60987 15.26,-28.89 22.6494,-61.82923 21.3794,-94.46923 -1.12,-32.12 -10.71008,-63.90098 -27.58008,-91.25098 -17.62,-28.68 -43.02936,-52.519178 -72.83935,-68.159183 C 248.46741,6.2876889 217.96085,-1.0812388 187.46798,-0.99932685 Z"
     inkscape:connector-curvature="0" />
  <path
     id="path3763"
     style="fill:#7f7d7d;stroke-width:1"
     d="m 176.66183,35.996765 -0.0806,0.360352 c -1.24999,5.649998 -2.84007,11.229338 -4.33007,16.819335 -0.68,2.950005 -3.40993,4.640138 -5.41993,6.64014 -23.19999,21.81 -46.37912,43.629668 -69.599119,65.409668 -4.26999,4.44 -9.23103,8.18981 -13.31103,12.79981 0.39,2.37999 1.34064,4.60986 2.160645,6.85986 12.589995,34.73 24.830254,69.59101 37.510254,104.29102 1.46,2.40999 4.87894,1.05986 7.16894,1.60986 39.09,0.23 78.20004,1.64978 117.29004,1.02978 2.58,-0.17 5.16023,-0.27015 7.74023,-0.41016 0.10001,-3.73999 1.82103,-7.12935 3.04102,-10.58935 12.10001,-33.49 24.22934,-66.98096 36.31934,-100.48096 -9.37,-7.74 -17.70014,-16.61956 -26.89014,-24.55957 -6.44,-6.59 -13.62937,-12.36992 -20.10937,-18.919918 -4.01,-3.99 -8.53047,-7.440487 -12.48047,-11.500492 -4.79,-4.909995 -10.2493,-9.089768 -15.0293,-14.009768 -4.78,-4.92999 -10.30127,-9.049507 -15.05127,-13.999507 -1.57,-1.44 -1.99953,-3.580043 -2.51953,-5.54004 -1.23,-5.139998 -2.76987,-10.190348 -3.85986,-15.360353 l -0.0395,-0.180172 c -7.51,-0.09 -15.01027,-0.279533 -22.51025,-0.269535 z"
     inkscape:connector-curvature="0" />
  <path
     id="path3765"
     style="fill:#de151e;stroke-width:1"
     d="M 176.58125,36.357117 C 129.40126,70.627115 82.261996,104.95603 35.091998,139.23603 c 17.810003,54.82 35.709278,109.61017 53.509275,164.43017 3.72,-3.82 7.100468,-7.97955 9.480473,-12.78955 4.560004,-6.83 8.959504,-13.78027 13.249504,-20.78028 5.00001,-6.39999 8.30075,-13.87943 12.26075,-20.91942 -12.68,-34.70001 -24.920259,-69.56102 -37.510254,-104.29102 -0.820005,-2.25 -1.770645,-4.47987 -2.160645,-6.85986 4.08,-4.61 9.04104,-8.35981 13.31103,-12.79981 23.219999,-21.78 46.399129,-43.599668 69.599119,-65.409668 2.01,-2.000002 4.73993,-3.690135 5.41993,-6.64014 1.49,-5.589997 3.08008,-11.169337 4.33007,-16.819335 z"
     inkscape:connector-curvature="0" />
  <path
     id="path3767"
     style="fill:#de151e;stroke-width:1"
     d="m 199.21163,36.446472 c 1.08999,5.170005 2.62986,10.220355 3.85986,15.360353 0.52,1.959997 0.94953,4.10004 2.51953,5.54004 4.75,4.95 10.27127,9.069517 15.05127,13.999507 4.78,4.92 10.2393,9.099773 15.0293,14.009768 3.95,4.060005 8.47047,7.510492 12.48047,11.500492 6.48,6.549998 13.66937,12.329918 20.10937,18.919918 9.19,7.94001 17.52014,16.81957 26.89014,24.55957 -12.09,33.5 -24.21933,66.99096 -36.31934,100.48096 -1.21999,3.46 -2.94101,6.84936 -3.04102,10.58935 4.39001,9.06 7.91052,18.60981 13.52052,27.04981 4.71,10.62 10.79033,20.50096 16.34033,30.73096 18.57,-56.65 36.80951,-113.41059 55.24951,-170.10059 -47.24,-34.2 -94.29994,-68.660135 -141.68994,-102.640138 z"
     inkscape:connector-curvature="0" />
  <path
     id="path3769"
     style="fill:#de151e;stroke-width:1"
     d="m 187.69356,99.239928 c -1.05566,-0.0274 -2.18115,0.866702 -2.4624,2.116702 -17.35,30.29 -34.85895,60.48981 -52.16895,90.7998 -1.29,1.94001 1.30987,3.24026 2.35987,4.51026 32.86,-0.19 65.71959,-0.42027 98.57959,-0.53028 3.51999,-0.08 7.15955,0.43085 10.53954,-0.88915 -1.18999,-2.69 -2.53933,-5.30055 -4.06933,-7.81055 -17.06,-29 -34.10088,-58.02076 -51.15088,-87.03076 -0.38625,-0.802502 -0.99404,-1.149612 -1.62744,-1.166022 z"
     inkscape:connector-curvature="0" />
  <path
     id="path3771"
     style="fill:#de151e;stroke-width:1"
     d="m 130.76094,250.78681 c -2.95,4.77999 -4.9888,10.06932 -8.02881,14.79931 -3.96999,7.42001 -5.40986,15.96065 -9.85986,23.16065 -2.9,5.31 -2.9708,11.69004 -6.3208,16.79004 -2.66,4.02999 -4.50006,8.58912 -5.31006,13.34912 27.58,0.17 55.16024,-0.009 82.74024,-0.009 31.04,-0.07 62.09011,0.14988 93.12012,-0.12012 -1.56,-3.93 -1.35038,-8.49024 -3.88038,-12.01025 -3.98,-5.76 -6.68007,-12.24008 -9.58008,-18.58007 -4.26999,-12.47 -9.58032,-24.60011 -15.59033,-36.3501 -39.09,0.61999 -78.20004,-0.79979 -117.29004,-1.02979 z"
     inkscape:connector-curvature="0" />
</svg>
