<?xml version="1.0" encoding="UTF-8" ?>
<!DOCTYPE svg PUBLIC "-//W3C//DTD SVG 1.1//EN" "http://www.w3.org/Graphics/SVG/1.1/DTD/svg11.dtd">
<svg width="454pt" height="500pt" viewBox="0 0 454 500" version="1.1" xmlns="http://www.w3.org/2000/svg">
<path fill="#ffffff" d=" M 0.00 0.00 L 454.00 0.00 L 454.00 500.00 L 0.00 500.00 L 0.00 0.00 Z" />
<path fill="#020101" d=" M 206.55 57.81 C 242.54 54.42 279.47 61.64 311.44 78.54 C 341.25 94.18 366.66 118.02 384.28 146.70 C 401.15 174.05 410.74 205.83 411.86 237.95 C 413.13 270.59 405.74 303.53 390.48 332.42 C 373.67 364.41 347.46 391.39 315.92 409.03 C 289.47 423.93 259.33 432.18 228.99 432.93 C 197.04 433.82 164.90 426.41 136.62 411.50 C 108.29 396.64 83.91 374.39 66.44 347.59 C 47.17 318.14 36.48 283.17 36.03 247.97 C 35.34 210.57 46.20 173.07 66.80 141.86 C 84.92 114.28 110.36 91.58 139.88 76.83 C 160.66 66.41 183.40 59.93 206.55 57.81 Z" />
<path fill="#7f7d7d" d=" M 212.66 93.99 C 220.16 93.98 227.66 94.17 235.17 94.26 L 235.21 94.44 C 236.30 99.61 237.84 104.66 239.07 109.80 C 239.59 111.76 240.02 113.90 241.59 115.34 C 246.34 120.29 251.86 124.41 256.64 129.34 C 261.42 134.26 266.88 138.44 271.67 143.35 C 275.62 147.41 280.14 150.86 284.15 154.85 C 290.63 161.40 297.82 167.18 304.26 173.77 C 313.45 181.71 321.78 190.59 331.15 198.33 C 319.06 231.83 306.93 265.32 294.83 298.81 C 293.61 302.27 291.89 305.66 291.79 309.40 C 289.21 309.54 286.63 309.64 284.05 309.81 C 244.96 310.43 205.85 309.01 166.76 308.78 C 164.47 308.23 161.05 309.58 159.59 307.17 C 146.91 272.47 134.67 237.61 122.08 202.88 C 121.26 200.63 120.31 198.40 119.92 196.02 C 124.00 191.41 128.96 187.66 133.23 183.22 C 156.45 161.44 179.63 139.62 202.83 117.81 C 204.84 115.81 207.57 114.12 208.25 111.17 C 209.74 105.58 211.33 100.00 212.58 94.35 L 212.66 93.99 Z" />
<path fill="#de151e" d=" M 71.09 197.23 C 118.26 162.95 165.40 128.62 212.58 94.35 C 211.33 100.00 209.74 105.58 208.25 111.17 C 207.57 114.12 204.84 115.81 202.83 117.81 C 179.63 139.62 156.45 161.44 133.23 183.22 C 128.96 187.66 124.00 191.41 119.92 196.02 C 120.31 198.40 121.26 200.63 122.08 202.88 C 134.67 237.61 146.91 272.47 159.59 307.17 C 155.63 314.21 152.33 321.69 147.33 328.09 C 143.04 335.09 138.64 342.04 134.08 348.87 C 131.70 353.68 128.32 357.84 124.60 361.66 C 106.80 306.84 88.90 252.05 71.09 197.23 Z" />
<path fill="#de151e" d=" M 239.07 109.80 C 237.84 104.66 236.30 99.61 235.21 94.44 C 282.60 128.42 329.66 162.88 376.90 197.08 C 358.46 253.77 340.22 310.53 321.65 367.18 C 316.10 356.95 310.02 347.07 305.31 336.45 C 299.70 328.01 296.18 318.46 291.79 309.40 C 291.89 305.66 293.61 302.27 294.83 298.81 C 306.93 265.32 319.06 231.83 331.15 198.33 C 321.78 190.59 313.45 181.71 304.26 173.77 C 297.82 167.18 290.63 161.40 284.15 154.85 C 280.14 150.86 275.62 147.41 271.67 143.35 C 266.88 138.44 261.42 134.26 256.64 129.34 C 251.86 124.41 246.34 120.29 241.59 115.34 C 240.02 113.90 239.59 111.76 239.07 109.80 Z" />
<path fill="#de151e" d=" M 221.23 159.35 C 221.68 157.35 224.29 156.26 225.32 158.40 C 242.37 187.41 259.41 216.43 276.47 245.43 C 278.00 247.94 279.35 250.55 280.54 253.24 C 277.16 254.56 273.52 254.05 270.00 254.13 C 237.14 254.24 204.28 254.47 171.42 254.66 C 170.37 253.39 167.77 252.09 169.06 250.15 C 186.37 219.84 203.88 189.64 221.23 159.35 Z" />
<path fill="#de151e" d=" M 166.76 308.78 C 205.85 309.01 244.96 310.43 284.05 309.81 C 290.06 321.56 295.37 333.69 299.64 346.16 C 302.54 352.50 305.24 358.98 309.22 364.74 C 311.75 368.26 311.54 372.82 313.10 376.75 C 282.07 377.02 251.02 376.80 219.98 376.87 C 192.40 376.87 164.82 377.05 137.24 376.88 C 138.05 372.12 139.89 367.56 142.55 363.53 C 145.90 358.43 145.97 352.05 148.87 346.74 C 153.32 339.54 154.76 331.00 158.73 323.58 C 161.77 318.85 163.81 313.56 166.76 308.78 Z" />
</svg>
